<?xml version="1.0" encoding="UTF-8" standalone="no"?>
<!-- Generator: Adobe Illustrator 19.0.0, SVG Export Plug-In . SVG Version: 6.00 Build 0)  -->

<svg
   xmlns:dc="http://purl.org/dc/elements/1.1/"
   xmlns:cc="http://creativecommons.org/ns#"
   xmlns:rdf="http://www.w3.org/1999/02/22-rdf-syntax-ns#"
   xmlns:svg="http://www.w3.org/2000/svg"
   xmlns="http://www.w3.org/2000/svg"
   xmlns:sodipodi="http://sodipodi.sourceforge.net/DTD/sodipodi-0.dtd"
   xmlns:inkscape="http://www.inkscape.org/namespaces/inkscape"
   version="1.1"
   id="Capa_1"
   x="0px"
   y="0px"
   viewBox="0 0 55 55"
   style="enable-background:new 0 0 55 55;"
   xml:space="preserve"
   inkscape:version="0.92.3 (2405546, 2018-03-11)"
   sodipodi:docname="ef-core-migration-script-generator.svg"
   inkscape:export-filename="C:\Users\msn\Source\Repos\EfCoreMigrationScriptGenerator\efcore-migration-task\images\ef-core-migration-script-generator.png"
   inkscape:export-xdpi="223.41818"
   inkscape:export-ydpi="223.41818"><metadata
     id="metadata39"><rdf:RDF><cc:Work
         rdf:about=""><dc:format>image/svg+xml</dc:format><dc:type
           rdf:resource="http://purl.org/dc/dcmitype/StillImage" /><dc:title /></cc:Work></rdf:RDF></metadata><defs
     id="defs37" /><sodipodi:namedview
     pagecolor="#ffffff"
     bordercolor="#666666"
     borderopacity="1"
     objecttolerance="10"
     gridtolerance="10"
     guidetolerance="10"
     inkscape:pageopacity="0"
     inkscape:pageshadow="2"
     inkscape:window-width="1366"
     inkscape:window-height="705"
     id="namedview35"
     showgrid="false"
     inkscape:zoom="4.2909091"
     inkscape:cx="43.742786"
     inkscape:cy="-1.5705503"
     inkscape:window-x="-8"
     inkscape:window-y="-8"
     inkscape:window-maximized="1"
     inkscape:current-layer="Capa_1" /><path
     d="M 26.256189,7.03366 C 25.702705,4.983185 21.583115,2.966168 14.376819,2.966168 7.170525,2.966168 3.050457,4.983185 2.497451,7.03366 2.457301,7.10392 2.427671,7.180873 2.427671,7.267863 v 0.238983 5.496608 0.238983 0.238983 5.257628 0.238983 0.238983 5.735593 c 0,0.07743 0.02055,0.150559 0.05592,0.215563 0.564478,2.339644 5.614668,4.086132 11.89323,4.086132 6.264225,0 11.306289,-1.739319 11.889408,-4.07036 0.03824,-0.06835 0.05975,-0.147213 0.05975,-0.231335 V 19.217014 18.978031 18.739048 13.48142 13.242437 13.003454 7.506846 7.267863 c 0,-0.08699 -0.02963,-0.163942 -0.06978,-0.234203 z M 14.376814,28.298365 c 21.285318,16.888704 10.642659,8.444352 0,0 z"
     id="path3-0"
     inkscape:connector-curvature="0"
     style="fill:#ffa7ff;fill-opacity:1"
     sodipodi:nodetypes="cscscccccccscscscccccccscccc" /><g
     id="g885"
     transform="translate(12.427671,-15.750937)"><path
       style="fill:#800080"
       inkscape:connector-curvature="0"
       id="path3"
       d="M 13.828517,22.779357 C 13.275033,20.728882 9.1554427,18.711865 1.9491477,18.711865 c -7.2062944,0 -11.3263617,2.017017 -11.8793677,4.067492 C -9.97037,22.849617 -10,22.92657 -10,23.01356 v 0.238983 5.496609 0.238983 0.238983 5.257628 0.238983 0.238983 5.735593 c 0,0.07743 0.02055,0.150559 0.05592,0.215563 C -9.379602,43.253512 -4.3294127,45 1.9491497,45 c 6.264224,0 11.3062883,-1.739319 11.8894073,-4.07036 0.03824,-0.06835 0.05975,-0.147213 0.05975,-0.231335 V 34.962712 34.723729 34.484746 29.227118 28.988135 28.749152 23.252543 23.01356 c 0,-0.08699 -0.02963,-0.163942 -0.06978,-0.234203 z m -0.923908,12.176185 c -0.01338,0.05783 -0.03202,0.11519 -0.05544,0.173502 -0.01912,0.04732 -0.04254,0.09464 -0.06835,0.141956 -0.03202,0.05879 -0.06787,0.117579 -0.11041,0.176369 -0.03155,0.04445 -0.06739,0.08842 -0.104675,0.132397 -0.05305,0.06261 -0.109454,0.125227 -0.173502,0.187363 -0.03871,0.03776 -0.08125,0.07504 -0.124271,0.1128 -0.07839,0.06835 -0.160118,0.13622 -0.25141,0.203613 -0.03919,0.02916 -0.08125,0.05736 -0.122837,0.08603 -0.108021,0.07456 -0.220821,0.148648 -0.344614,0.221298 -0.0325,0.0196 -0.06739,0.03824 -0.101329,0.05736 -0.142434,0.0803 -0.291081,0.160119 -0.451678,0.237549 -0.02055,0.01004 -0.04206,0.0196 -0.06309,0.02916 -0.179237,0.0846 -0.3666,0.167766 -0.566868,0.248065 -0.0057,0.0024 -0.01147,0.0043 -0.01721,0.0067 -1.0854613,0.433516 -2.4739523,0.798204 -4.0918683,1.037187 -0.0081,9.56e-4 -0.01625,0.0019 -0.02438,0.0033 -0.314501,0.04636 -0.637129,0.08747 -0.968359,0.123793 -0.05401,0.0057 -0.110888,0.0096 -0.165376,0.0153 -0.28917,0.03011 -0.581685,0.05783 -0.882804,0.07982 -0.137654,0.01004 -0.282,0.01482 -0.422044,0.02342 -0.226556,0.01338 -0.450722,0.0282 -0.683013,0.03633 -0.379505,0.01195 -0.766658,0.0196 -1.161936,0.0196 -0.395278,0 -0.782431,-0.0076 -1.162414,-0.02103 -0.232291,-0.0081 -0.456457,-0.02342 -0.683013,-0.03633 -0.140044,-0.0081 -0.28439,-0.01338 -0.422044,-0.02342 -0.301119,-0.02199 -0.593634,-0.04971 -0.882804,-0.07982 -0.05449,-0.0057 -0.111366,-0.0096 -0.165376,-0.0153 -0.33123,-0.03633 -0.653857,-0.07791 -0.968359,-0.123793 -0.0081,-9.56e-4 -0.01625,-0.0019 -0.02438,-0.0033 -1.617915,-0.238983 -3.0064064,-0.603671 -4.0918677,-1.037187 -0.0057,-0.0019 -0.01147,-0.0043 -0.01721,-0.0067 -0.200268,-0.0803 -0.388108,-0.163465 -0.566868,-0.248065 -0.02055,-0.01004 -0.04254,-0.0196 -0.06309,-0.02915 -0.160596,-0.07743 -0.309243,-0.156773 -0.451677,-0.23755 -0.03346,-0.01912 -0.06883,-0.03776 -0.101329,-0.05736 -0.123793,-0.07265 -0.236593,-0.146735 -0.344614,-0.221298 -0.04111,-0.02868 -0.08364,-0.05688 -0.122837,-0.08603 -0.09129,-0.06739 -0.173024,-0.135264 -0.25141,-0.203613 -0.04254,-0.03728 -0.08556,-0.07456 -0.124271,-0.1128 -0.06405,-0.06214 -0.120448,-0.124271 -0.173502,-0.187363 -0.03728,-0.04397 -0.07313,-0.08795 -0.104675,-0.132397 -0.04206,-0.05879 -0.07791,-0.117579 -0.11041,-0.176369 -0.02581,-0.04732 -0.04875,-0.09464 -0.06835,-0.141956 -0.02342,-0.05783 -0.04206,-0.115668 -0.05544,-0.173502 -0.01769,-0.076 -0.03728,-0.153427 -0.03728,-0.230379 0,-0.05401 0.0062,-0.108021 0.01482,-0.161553 0.01195,-0.07217 0.0053,-0.144346 -0.01482,-0.212695 v -3.54842 c 0.01338,0.01243 0.03011,0.02438 0.04397,0.0368 0.104196,0.09177 0.210305,0.183061 0.329796,0.271007 1.800497,1.361725 5.4010157,2.419942 10.6194497,2.419942 5.196447,0 8.7878853,-1.049613 10.5960313,-2.403213 0.144345,-0.105153 0.274352,-0.213651 0.396711,-0.324061 l 4.78e-4,-4.78e-4 v 3.54842 c -0.02007,0.06835 -0.02677,0.140522 -0.01482,0.212695 0.0091,0.05353 0.01482,0.107542 0.01482,0.161553 0,0.07695 -0.0196,0.154383 -0.03776,0.231813 z m 0.03776,-9.890073 v 3.548419 c -0.02007,0.06835 -0.02677,0.140522 -0.01482,0.212695 0.0091,0.05353 0.01482,0.107542 0.01482,0.161552 0,0.07695 -0.0196,0.154383 -0.03776,0.231814 -0.01338,0.05783 -0.03202,0.11519 -0.05544,0.173502 -0.01912,0.04732 -0.04254,0.09464 -0.06835,0.141956 -0.03202,0.05879 -0.06787,0.117579 -0.11041,0.176369 -0.03155,0.04445 -0.06739,0.08842 -0.104675,0.132397 -0.05305,0.06261 -0.109454,0.125227 -0.173502,0.187362 -0.03871,0.03776 -0.08125,0.07504 -0.124271,0.1128 -0.07839,0.06835 -0.160118,0.136221 -0.25141,0.203614 -0.03919,0.02916 -0.08125,0.05736 -0.122837,0.08603 -0.108021,0.07456 -0.220821,0.148647 -0.344614,0.221298 -0.0325,0.0196 -0.06739,0.03824 -0.101329,0.05736 -0.142434,0.0803 -0.291081,0.160119 -0.451678,0.237549 -0.02055,0.01004 -0.04206,0.0196 -0.06309,0.02916 -0.179237,0.0846 -0.3666,0.167766 -0.566868,0.248065 -0.0057,0.0024 -0.01147,0.0043 -0.01721,0.0067 -1.0854613,0.433515 -2.4739523,0.798203 -4.0918683,1.037187 -0.0081,9.55e-4 -0.01625,0.0019 -0.02438,0.0033 -0.314501,0.04636 -0.637129,0.08747 -0.968359,0.123794 -0.05401,0.0057 -0.110888,0.0096 -0.165376,0.01529 -0.28917,0.03011 -0.581685,0.05783 -0.882804,0.07982 -0.137654,0.01004 -0.282,0.01482 -0.422044,0.02342 -0.226556,0.01338 -0.450722,0.0282 -0.683013,0.03633 -0.379505,0.01195 -0.766658,0.0196 -1.161936,0.0196 -0.395278,0 -0.782431,-0.0076 -1.162414,-0.02103 -0.232291,-0.0081 -0.456457,-0.02342 -0.683013,-0.03633 -0.140044,-0.0081 -0.28439,-0.01338 -0.422044,-0.02342 -0.301119,-0.02199 -0.593634,-0.04971 -0.882804,-0.07982 -0.05449,-0.0057 -0.111366,-0.0096 -0.165376,-0.0153 -0.33123,-0.03633 -0.653857,-0.07791 -0.968359,-0.123794 -0.0081,-9.56e-4 -0.01625,-0.0019 -0.02438,-0.0033 -1.617915,-0.238983 -3.0064064,-0.603672 -4.0918677,-1.037187 -0.0057,-0.0019 -0.01147,-0.0043 -0.01721,-0.0067 -0.200268,-0.0803 -0.388108,-0.163465 -0.566868,-0.248065 -0.02055,-0.01004 -0.04254,-0.0196 -0.06309,-0.02916 -0.160596,-0.07743 -0.309243,-0.156773 -0.451677,-0.237549 -0.03346,-0.01912 -0.06883,-0.03776 -0.101329,-0.05736 -0.123793,-0.07265 -0.236593,-0.146735 -0.344614,-0.221298 -0.04111,-0.02868 -0.08364,-0.05688 -0.122837,-0.08603 -0.09129,-0.06739 -0.173024,-0.135264 -0.25141,-0.203614 -0.04254,-0.03728 -0.08556,-0.07456 -0.124271,-0.1128 -0.06405,-0.06213 -0.120448,-0.124271 -0.173502,-0.187362 -0.03728,-0.04397 -0.07313,-0.08795 -0.104675,-0.132397 -0.04206,-0.05879 -0.07791,-0.117579 -0.11041,-0.176369 -0.02581,-0.04732 -0.04875,-0.09464 -0.06835,-0.141956 -0.02342,-0.05783 -0.04206,-0.115668 -0.05544,-0.173502 -0.01769,-0.076 -0.03728,-0.153427 -0.03728,-0.23038 0,-0.05401 0.0062,-0.10802 0.01482,-0.161552 0.01195,-0.07217 0.0053,-0.144346 -0.01482,-0.212695 v -3.548419 c 0.05736,0.0521 0.122837,0.10324 0.184973,0.154861 0.03441,0.02868 0.06644,0.05736 0.102762,0.08603 0.14339,0.1128 0.298251,0.224166 0.466017,0.332664 0.03489,0.02246 0.07409,0.04445 0.11041,0.06692 0.140522,0.08747 0.28917,0.173024 0.445465,0.257146 0.05783,0.03107 0.115668,0.06166 0.175413,0.09225 0.174458,0.0889 0.357519,0.175414 0.550138,0.259058 0.03155,0.01386 0.06022,0.0282 0.09225,0.04158 0.224166,0.09511 0.462193,0.185929 0.709779,0.273875 0.06835,0.02438 0.140045,0.04732 0.2103063,0.07122 0.196922,0.06644 0.400535,0.130006 0.611318,0.191664 0.076,0.02199 0.150559,0.04493 0.228468,0.06596 0.27961,0.07743 0.568302,0.151038 0.871332,0.218909 0.04158,0.0096 0.08651,0.01721 0.128573,0.02629 0.2671834,0.05831 0.5444024,0.112322 0.8292704,0.162986 0.09655,0.01721 0.194532,0.03346 0.292993,0.04971 0.271007,0.04445 0.550139,0.08508 0.836441,0.122359 0.07361,0.0096 0.143868,0.02055 0.218431,0.02963 0.355606,0.04302 0.72364,0.07982 1.101712,0.111366 0.0932,0.0076 0.19023,0.01338 0.284867,0.02007 0.302553,0.02199 0.611797,0.04015 0.92821,0.05449 0.11519,0.0053 0.229902,0.01052 0.347482,0.01482 0.412007,0.01386 0.831661,0.0239 1.26661,0.0239 0.434949,0 0.854603,-0.01004 1.26661,-0.0239 0.117102,-0.0043 0.231814,-0.0096 0.347482,-0.01482 0.316413,-0.01434 0.625657,-0.0325 0.92821,-0.05449 0.09464,-0.0072 0.191186,-0.01243 0.284867,-0.02007 0.378072,-0.03107 0.746106,-0.06835 1.101712,-0.111366 0.07456,-0.0091 0.144824,-0.02008 0.218431,-0.02963 0.286302,-0.03728 0.564956,-0.07791 0.836441,-0.122359 0.09846,-0.01625 0.196444,-0.0325 0.292993,-0.04971 0.284868,-0.05066 0.562088,-0.104674 0.829271,-0.162986 0.04206,-0.0091 0.08699,-0.01721 0.128573,-0.02629 0.30303,-0.06787 0.591722,-0.141956 0.871332,-0.218909 0.07791,-0.02151 0.152471,-0.04397 0.228468,-0.06596 0.210783,-0.06166 0.414396,-0.125227 0.611318,-0.191664 0.07026,-0.0239 0.1419563,-0.04684 0.2103063,-0.07122 0.247586,-0.08795 0.486091,-0.17876 0.709779,-0.273875 0.03202,-0.01338 0.0607,-0.02772 0.09225,-0.04158 0.19262,-0.08412 0.375681,-0.170156 0.550139,-0.259058 0.05974,-0.03059 0.118057,-0.06118 0.175413,-0.09225 0.156295,-0.08364 0.304943,-0.1692 0.445465,-0.257146 0.03632,-0.02246 0.07552,-0.04445 0.11041,-0.06692 0.167766,-0.108498 0.322627,-0.219387 0.466017,-0.332664 0.03585,-0.02868 0.06787,-0.05736 0.102762,-0.08603 0.06214,-0.05162 0.127617,-0.102763 0.184973,-0.154861 z M 1.9491477,19.667797 c 6.478831,0 10.9932203,1.888922 10.9932203,3.584746 0,1.695824 -4.5143893,3.584745 -10.9932203,3.584745 -6.4788304,0 -10.9932187,-1.888921 -10.9932187,-3.584745 0,-1.695824 4.5143883,-3.584746 10.9932187,-3.584746 z M 12.942368,40.556349 c -0.0067,0.02103 -0.01147,0.04254 -0.0153,0.06452 -0.271006,1.653285 -4.7471593,3.423194 -10.9779253,3.423194 -6.2307654,0 -10.7069177,-1.769909 -10.9779237,-3.423194 -0.0038,-0.02151 -0.0091,-0.04254 -0.0153,-0.06261 v -4.021607 c 0.01338,0.01243 0.03011,0.02438 0.04397,0.0368 0.104196,0.09177 0.210305,0.183061 0.329796,0.271007 1.800497,1.361726 5.4010157,2.419943 10.6194497,2.419943 5.196447,0 8.7878853,-1.049614 10.5960313,-2.403214 0.144345,-0.105153 0.274352,-0.213651 0.396711,-0.324061 l 4.78e-4,-4.78e-4 v 4.019695 z" /></g><g
     id="g5" /><g
     id="g7" /><g
     id="g9" /><g
     id="g11" /><g
     id="g13" /><g
     id="g15" /><g
     id="g17" /><g
     id="g19" /><g
     id="g21" /><g
     id="g23" /><g
     id="g25" /><g
     id="g27" /><g
     id="g29" /><g
     id="g31" /><g
     id="g33" /><path
     style="fill:none;fill-rule:evenodd;stroke:#2e2e2e;stroke-width:0.66247809;stroke-linecap:butt;stroke-linejoin:miter;stroke-miterlimit:4;stroke-dasharray:none;stroke-opacity:1"
     d="m 22.388879,13.629968 h 20.205582 l 8.943454,9.274693 V 51.391218 H 22.388879 Z"
     id="path3351"
     inkscape:connector-curvature="0"
     sodipodi:nodetypes="cccccc" /><path
     style="fill:#ffffff;fill-opacity:1;fill-rule:evenodd;stroke:none;stroke-width:1px;stroke-linecap:butt;stroke-linejoin:miter;stroke-opacity:1"
     d="m 22.720118,13.961207 h 19.874343 v 8.612215 h 8.612215 V 51.059979 H 22.720118"
     id="path4228"
     inkscape:connector-curvature="0"
     sodipodi:nodetypes="cccccc" /><path
     style="fill:none;fill-rule:evenodd;stroke:#2e2e2e;stroke-width:1.32495618;stroke-linecap:butt;stroke-linejoin:miter;stroke-miterlimit:4;stroke-dasharray:none;stroke-opacity:1"
     d="m 25.370031,18.598534 h 16.89319"
     id="path4160"
     inkscape:connector-curvature="0"
     sodipodi:nodetypes="cc"
     inkscape:tile-cx="14.25"
     inkscape:tile-cy="5.5"
     inkscape:tile-w="12.5"
     inkscape:tile-h="1"
     inkscape:tile-x0="8"
     inkscape:tile-y0="5" /><path
     inkscape:tile-y0="5"
     inkscape:tile-x0="8"
     sodipodi:nodetypes="cc"
     inkscape:connector-curvature="0"
     id="use4195"
     d="m 25.370031,18.598554 h 17.22443"
     style="fill:#000000;fill-rule:evenodd;stroke:#2e2e2e;stroke-width:1.32495618;stroke-linecap:butt;stroke-linejoin:miter;stroke-miterlimit:4;stroke-dasharray:none;stroke-opacity:1" /><path
     inkscape:tile-y0="5"
     inkscape:tile-x0="8"
     sodipodi:nodetypes="cc"
     inkscape:connector-curvature="0"
     id="use4197"
     d="M 25.370034,22.573356 H 48.556768"
     style="fill:none;fill-rule:evenodd;stroke:#2e2e2e;stroke-width:1.32495666;stroke-linecap:butt;stroke-linejoin:miter;stroke-miterlimit:4;stroke-dasharray:none;stroke-opacity:1" /><path
     inkscape:tile-y0="21"
     inkscape:tile-x0="27.999999"
     sodipodi:nodetypes="cc"
     inkscape:connector-curvature="0"
     id="use4199"
     d="M 25.369798,26.54829 H 48.556799"
     style="fill:none;fill-rule:evenodd;stroke:#2e2e2e;stroke-width:1.32495594;stroke-linecap:butt;stroke-linejoin:miter;stroke-miterlimit:4;stroke-dasharray:none;stroke-opacity:1"
     inkscape:tile-cx="38.499998"
     inkscape:tile-cy="22"
     inkscape:tile-w="20.999999"
     inkscape:tile-h="1.9999996" /><path
     style="fill:none;fill-rule:evenodd;stroke:#2e2e2e;stroke-width:0.66247809px;stroke-linecap:butt;stroke-linejoin:miter;stroke-opacity:1"
     d="m 42.263222,13.961207 v 8.943454 h 8.943454"
     id="path4245"
     inkscape:connector-curvature="0"
     sodipodi:nodetypes="ccc"
     inkscape:export-xdpi="90"
     inkscape:export-ydpi="90" /><path
     style="fill:#ffffff;fill-opacity:1;fill-rule:evenodd;stroke:none;stroke-width:1px;stroke-linecap:butt;stroke-linejoin:miter;stroke-opacity:1"
     d="m 42.594461,14.126827 8.115356,8.446595 h -8.115356"
     id="path4228-9"
     inkscape:connector-curvature="0"
     sodipodi:nodetypes="ccc" /><path
     style="fill:none;fill-rule:evenodd;stroke:#2e2e2e;stroke-width:1.32495594;stroke-linecap:butt;stroke-linejoin:miter;stroke-miterlimit:4;stroke-dasharray:none;stroke-opacity:1"
     d="M 25.369798,30.523159 H 48.556799"
     id="use4233"
     inkscape:connector-curvature="0"
     sodipodi:nodetypes="cc"
     inkscape:tile-x0="27.999999"
     inkscape:tile-y0="21" /><path
     style="fill:none;fill-rule:evenodd;stroke:#2e2e2e;stroke-width:1.32495594;stroke-linecap:butt;stroke-linejoin:miter;stroke-miterlimit:4;stroke-dasharray:none;stroke-opacity:1"
     d="M 25.369798,34.498027 H 48.556799"
     id="use4235"
     inkscape:connector-curvature="0"
     sodipodi:nodetypes="cc"
     inkscape:tile-x0="27.999999"
     inkscape:tile-y0="21" /><path
     style="fill:none;fill-rule:evenodd;stroke:#2e2e2e;stroke-width:1.32495594;stroke-linecap:butt;stroke-linejoin:miter;stroke-miterlimit:4;stroke-dasharray:none;stroke-opacity:1"
     d="M 25.369798,38.472896 H 48.556799"
     id="use4237"
     inkscape:connector-curvature="0"
     sodipodi:nodetypes="cc"
     inkscape:tile-x0="27.999999"
     inkscape:tile-y0="21" /><path
     style="fill:none;fill-rule:evenodd;stroke:#2e2e2e;stroke-width:1.32495594;stroke-linecap:butt;stroke-linejoin:miter;stroke-miterlimit:4;stroke-dasharray:none;stroke-opacity:1"
     d="M 25.369798,42.447764 H 48.556799"
     id="use4239"
     inkscape:connector-curvature="0"
     sodipodi:nodetypes="cc"
     inkscape:tile-x0="27.999999"
     inkscape:tile-y0="21" /><path
     style="fill:none;fill-rule:evenodd;stroke:#2e2e2e;stroke-width:1.32495594;stroke-linecap:butt;stroke-linejoin:miter;stroke-miterlimit:4;stroke-dasharray:none;stroke-opacity:1"
     d="M 25.369798,46.422633 H 48.556799"
     id="use4241"
     inkscape:connector-curvature="0"
     sodipodi:nodetypes="cc"
     inkscape:tile-x0="27.999999"
     inkscape:tile-y0="21" /></svg>